<?xml version="1.0" encoding="UTF-8"?>
<!DOCTYPE svg PUBLIC "-//W3C//DTD SVG 1.1//EN" "http://www.w3.org/Graphics/SVG/1.1/DTD/svg11.dtd">
<svg xmlns="http://www.w3.org/2000/svg" version="1.1" width="256px" height="256px" style="shape-rendering:geometricPrecision; text-rendering:geometricPrecision; image-rendering:optimizeQuality; fill-rule:evenodd; clip-rule:evenodd" xmlns:xlink="http://www.w3.org/1999/xlink">
<g><path style="opacity:1" fill="#75bfe5" d="M -0.5,-0.5 C 25.8333,-0.5 52.1667,-0.5 78.5,-0.5C 73.5584,3.10285 68.8918,7.10285 64.5,11.5C 61.5141,16.4746 58.1808,21.1413 54.5,25.5C 48.6017,36.5252 44.935,48.1919 43.5,60.5C 41.5316,68.4329 40.865,76.7663 41.5,85.5C 40.1667,85.5 38.8333,85.5 37.5,85.5C 35.3874,84.1142 33.3874,84.4476 31.5,86.5C 26.2433,99.3985 24.7433,112.732 27,126.5C 30.6322,131.991 34.1322,137.658 37.5,143.5C 39.6568,145.822 41.9901,147.989 44.5,150C 47.4816,150.498 50.4816,150.665 53.5,150.5C 55.0676,155.419 57.2343,160.086 60,164.5C 66.624,171.136 73.7907,176.97 81.5,182C 72.7101,185.864 63.3767,188.198 53.5,189C 40.3732,193.465 33.2065,202.632 32,216.5C 31.5001,229.496 31.3334,242.496 31.5,255.5C 20.8333,255.5 10.1667,255.5 -0.5,255.5C -0.5,170.167 -0.5,84.8333 -0.5,-0.5 Z"/></g>
<g><path style="opacity:1" fill="#75bfe5" d="M 173.5,-0.5 C 200.833,-0.5 228.167,-0.5 255.5,-0.5C 255.5,84.8333 255.5,170.167 255.5,255.5C 243.833,255.5 232.167,255.5 220.5,255.5C 220.667,241.163 220.5,226.829 220,212.5C 219.617,211.944 219.117,211.611 218.5,211.5C 218.682,209.409 218.348,207.409 217.5,205.5C 214.4,202.728 212.066,199.395 210.5,195.5C 206.584,192.474 202.251,190.307 197.5,189C 189.037,188.423 180.704,187.09 172.5,185C 169.785,184.125 168.452,182.292 168.5,179.5C 170.308,179.509 171.975,179.009 173.5,178C 179.658,173.67 185.325,168.837 190.5,163.5C 191.904,158.371 193.571,153.371 195.5,148.5C 202.879,151.099 209.046,149.099 214,142.5C 217.405,135.356 221.072,128.356 225,121.5C 226.172,108.839 224.005,96.8395 218.5,85.5C 217.5,85.1667 216.5,84.8333 215.5,84.5C 213.319,85.8709 210.986,86.8709 208.5,87.5C 211.301,64.8412 207.301,43.5079 196.5,23.5C 192.15,18.3162 187.984,12.9829 184,7.5C 180.031,5.35324 176.531,2.68657 173.5,-0.5 Z"/></g>
<g><path style="opacity:1" fill="#5288a6" d="M 43.5,60.5 C 42.5851,69.4596 42.2518,78.4596 42.5,87.5C 40.4471,87.5979 38.7804,86.9313 37.5,85.5C 38.8333,85.5 40.1667,85.5 41.5,85.5C 40.865,76.7663 41.5316,68.4329 43.5,60.5 Z"/></g>
<g><path style="opacity:1" fill="#121110" d="M 78.5,-0.5 C 81.1667,-0.5 83.8333,-0.5 86.5,-0.5C 71.4864,7.06136 61.1531,18.8947 55.5,35C 54.1667,37 52.8333,39 51.5,41C 50.6355,47.6575 49.1355,54.1575 47,60.5C 46.2268,72.8663 46.3934,85.1997 47.5,97.5C 47.2153,100.829 47.8819,103.829 49.5,106.5C 49.7495,109.002 50.0828,111.502 50.5,114C 50.6083,115.681 51.2749,116.848 52.5,117.5C 53.1667,122.833 53.8333,128.167 54.5,133.5C 54.3359,136.187 54.5026,138.854 55,141.5C 55.2784,142.416 55.7784,143.082 56.5,143.5C 56.6737,149.521 58.1737,155.187 61,160.5C 65.0738,165.079 69.5738,169.079 74.5,172.5C 84.5873,180.007 95.5873,185.673 107.5,189.5C 109.214,190.738 111.214,191.405 113.5,191.5C 114.5,191.5 115.5,191.5 116.5,191.5C 116.611,192.117 116.944,192.617 117.5,193C 122.02,193.814 126.354,193.647 130.5,192.5C 133.167,192.167 135.833,191.833 138.5,191.5C 140.967,191.245 142.967,190.245 144.5,188.5C 148.771,187.731 152.771,186.231 156.5,184C 161.705,179.897 167.372,176.563 173.5,174C 175.59,172.412 177.257,170.578 178.5,168.5C 181.657,165.978 184.824,163.312 188,160.5C 188.483,159.552 188.649,158.552 188.5,157.5C 190.088,155.887 191.088,153.887 191.5,151.5C 191.5,150.167 191.5,148.833 191.5,147.5C 193.443,145.029 194.443,142.029 194.5,138.5C 194.5,137.167 194.5,135.833 194.5,134.5C 196.241,132.605 197.241,130.272 197.5,127.5C 199.592,117.563 201.258,107.563 202.5,97.5C 203.117,97.3893 203.617,97.056 204,96.5C 208.918,69.6092 204.418,44.6092 190.5,21.5C 187.245,17.9446 184.079,14.2779 181,10.5C 175.329,6.92717 169.829,3.2605 164.5,-0.5C 167.5,-0.5 170.5,-0.5 173.5,-0.5C 176.531,2.68657 180.031,5.35324 184,7.5C 187.984,12.9829 192.15,18.3162 196.5,23.5C 207.301,43.5079 211.301,64.8412 208.5,87.5C 210.986,86.8709 213.319,85.8709 215.5,84.5C 216.5,84.8333 217.5,85.1667 218.5,85.5C 224.005,96.8395 226.172,108.839 225,121.5C 221.072,128.356 217.405,135.356 214,142.5C 209.046,149.099 202.879,151.099 195.5,148.5C 193.571,153.371 191.904,158.371 190.5,163.5C 185.325,168.837 179.658,173.67 173.5,178C 171.975,179.009 170.308,179.509 168.5,179.5C 168.452,182.292 169.785,184.125 172.5,185C 180.704,187.09 189.037,188.423 197.5,189C 202.251,190.307 206.584,192.474 210.5,195.5C 212.066,199.395 214.4,202.728 217.5,205.5C 218.348,207.409 218.682,209.409 218.5,211.5C 219.467,226.118 219.8,240.785 219.5,255.5C 218.5,255.5 217.5,255.5 216.5,255.5C 216.667,241.829 216.5,228.163 216,214.5C 215.193,210.551 214.693,210.551 214.5,214.5C 213.5,214.5 212.5,214.5 211.5,214.5C 210.308,213.434 210.641,212.601 212.5,212C 212.333,201.148 206.667,194.481 195.5,192C 190.487,191.331 185.487,190.997 180.5,191C 183.122,194.494 185.455,197.994 187.5,201.5C 189.735,206.027 192.068,210.527 194.5,215C 199.069,216.783 203.735,218.283 208.5,219.5C 209.416,219.457 210.083,219.124 210.5,218.5C 210.626,217.561 210.96,216.561 211.5,215.5C 212.629,217.628 212.796,219.961 212,222.5C 211.29,223.973 210.124,224.64 208.5,224.5C 208.5,223.5 208.5,222.5 208.5,221.5C 204.708,220.759 201.041,219.759 197.5,218.5C 199.063,224.31 201.23,229.977 204,235.5C 205.035,238.963 204.202,241.796 201.5,244C 195.5,244.333 189.5,244.667 183.5,245C 179.266,247.732 175.933,251.232 173.5,255.5C 171.167,255.5 168.833,255.5 166.5,255.5C 167.611,254.34 168.611,253.007 169.5,251.5C 171.214,252.609 171.881,251.942 171.5,249.5C 177.186,247.086 176.519,244.586 169.5,242C 166.63,239.576 164.297,236.743 162.5,233.5C 161.282,240.784 160.615,248.118 160.5,255.5C 159.5,255.5 158.5,255.5 157.5,255.5C 157.833,248.833 158.167,242.167 158.5,235.5C 160.034,229.916 160.701,224.083 160.5,218C 160.333,213.833 160.167,209.667 160,205.5C 159.79,203.942 159.29,202.609 158.5,201.5C 156.94,204.741 154.607,208.241 151.5,212C 146.362,214.614 141.029,216.614 135.5,218C 123.87,219.294 112.537,218.294 101.5,215C 98.7399,213.257 96.4066,211.09 94.5,208.5C 94.5386,207.244 94.0386,206.244 93,205.5C 92.1777,213.345 92.3443,221.011 93.5,228.5C 93.7786,235.844 94.2786,243.177 95,250.5C 96.883,251.653 97.7163,253.319 97.5,255.5C 96.5,255.5 95.5,255.5 94.5,255.5C 93.5476,251.403 92.3809,247.403 91,243.5C 90.6121,242.572 89.9454,241.905 89,241.5C 85.7523,243.057 83.7523,245.391 83,248.5C 87.4851,248.275 90.3185,250.609 91.5,255.5C 89.8333,255.5 88.1667,255.5 86.5,255.5C 83.4137,252.777 80.0804,250.277 76.5,248C 76.9574,247.586 77.2907,247.086 77.5,246.5C 75.5,246.167 73.5,245.833 71.5,245.5C 64.3147,246.853 56.9813,247.853 49.5,248.5C 45.6221,249.885 45.6221,251.051 49.5,252C 45.7771,253.039 45.7771,254.206 49.5,255.5C 47.8333,255.5 46.1667,255.5 44.5,255.5C 43.3614,239.785 42.028,224.118 40.5,208.5C 43.2476,208.402 43.9143,209.402 42.5,211.5C 42.3285,213.492 42.9951,215.158 44.5,216.5C 43.9747,217.192 43.3081,217.692 42.5,218C 47.0606,218.54 51.3939,217.707 55.5,215.5C 57.5757,211.261 59.409,206.928 61,202.5C 62.7494,200.333 64.5827,198.333 66.5,196.5C 68.785,194.882 70.785,192.882 72.5,190.5C 71.6667,190.167 70.8333,189.833 70,189.5C 64.1839,190.759 58.3505,191.926 52.5,193C 46.6528,195.238 42.6528,199.238 40.5,205C 41.624,205.249 42.624,205.749 43.5,206.5C 41.604,207.466 39.604,207.799 37.5,207.5C 35.6349,223.414 34.9682,239.414 35.5,255.5C 34.1667,255.5 32.8333,255.5 31.5,255.5C 31.3334,242.496 31.5001,229.496 32,216.5C 33.2065,202.632 40.3732,193.465 53.5,189C 63.3767,188.198 72.7101,185.864 81.5,182C 73.7907,176.97 66.624,171.136 60,164.5C 57.2343,160.086 55.0676,155.419 53.5,150.5C 50.4816,150.665 47.4816,150.498 44.5,150C 41.9901,147.989 39.6568,145.822 37.5,143.5C 34.1322,137.658 30.6322,131.991 27,126.5C 24.7433,112.732 26.2433,99.3985 31.5,86.5C 33.3874,84.4476 35.3874,84.1142 37.5,85.5C 38.7804,86.9313 40.4471,87.5979 42.5,87.5C 42.2518,78.4596 42.5851,69.4596 43.5,60.5C 44.935,48.1919 48.6017,36.5252 54.5,25.5C 58.1808,21.1413 61.5141,16.4746 64.5,11.5C 68.8918,7.10285 73.5584,3.10285 78.5,-0.5 Z"/></g>
<g><path style="opacity:1" fill="#776501" d="M 191.5,151.5 C 191.088,153.887 190.088,155.887 188.5,157.5C 188.386,154.784 189.386,152.784 191.5,151.5 Z"/></g>
<g><path style="opacity:1" fill="#5f5202" d="M 194.5,138.5 C 194.443,142.029 193.443,145.029 191.5,147.5C 191.747,144.146 192.747,141.146 194.5,138.5 Z"/></g>
<g><path style="opacity:1" fill="#766d67" d="M 50.5,137.5 C 50.56,136.957 50.8933,136.624 51.5,136.5C 52.6548,139.446 52.8214,142.446 52,145.5C 49.3953,146.814 46.8953,146.814 44.5,145.5C 51.2306,146.309 53.2306,143.642 50.5,137.5 Z"/></g>
<g><path style="opacity:1" fill="#675a00" d="M 54.5,133.5 C 55.7846,136.589 56.4512,139.922 56.5,143.5C 55.7784,143.082 55.2784,142.416 55,141.5C 54.5026,138.854 54.3359,136.187 54.5,133.5 Z"/></g>
<g><path style="opacity:1" fill="#f2d100" d="M 196.5,127.5 C 195.593,129.657 194.927,131.99 194.5,134.5C 194.5,135.833 194.5,137.167 194.5,138.5C 192.747,141.146 191.747,144.146 191.5,147.5C 191.5,148.833 191.5,150.167 191.5,151.5C 189.386,152.784 188.386,154.784 188.5,157.5C 188.649,158.552 188.483,159.552 188,160.5C 184.824,163.312 181.657,165.978 178.5,168.5C 176.156,168.325 174.489,167.158 173.5,165C 175.867,162.92 178.533,161.42 181.5,160.5C 185.629,149.341 189.462,138.008 193,126.5C 195.672,122.299 196.839,122.633 196.5,127.5 Z"/></g>
<g><path style="opacity:1" fill="#eccc00" d="M 74.5,172.5 C 69.5738,169.079 65.0738,165.079 61,160.5C 58.1737,155.187 56.6737,149.521 56.5,143.5C 56.4512,139.922 55.7846,136.589 54.5,133.5C 53.8333,128.167 53.1667,122.833 52.5,117.5C 52.3505,116.448 52.5172,115.448 53,114.5C 53.6667,115.833 54.6667,116.833 56,117.5C 56.2922,122.388 56.9588,127.721 58,133.5C 61.4031,142.743 64.5698,152.076 67.5,161.5C 69.924,161.192 72.2573,161.526 74.5,162.5C 74.2907,163.086 73.9574,163.586 73.5,164C 75.7801,164.233 77.7801,165.066 79.5,166.5C 75.5879,168.453 75.5879,170.287 79.5,172C 77.8659,172.494 76.1992,172.66 74.5,172.5 Z"/></g>
<g><path style="opacity:1" fill="#584c03" d="M 196.5,127.5 C 196.833,127.5 197.167,127.5 197.5,127.5C 197.241,130.272 196.241,132.605 194.5,134.5C 194.927,131.99 195.593,129.657 196.5,127.5 Z"/></g>
<g><path style="opacity:1" fill="#d6a696" d="M 211.5,115.5 C 210.602,116.158 209.602,116.824 208.5,117.5C 210.799,121.972 211.132,126.639 209.5,131.5C 207.529,133.3 205.862,135.3 204.5,137.5C 203.791,136.596 202.791,136.263 201.5,136.5C 202.263,133.052 203.93,130.052 206.5,127.5C 207.33,121.862 207.83,116.196 208,110.5C 208.494,112.134 208.66,113.801 208.5,115.5C 209.5,115.5 210.5,115.5 211.5,115.5 Z"/></g>
<g><path style="opacity:1" fill="#c8b6a7" d="M 46.5,113.5 C 48.6909,119.531 50.0242,125.865 50.5,132.5C 49.1986,131.36 48.0319,130.027 47,128.5C 46.5007,123.511 46.3341,118.511 46.5,113.5 Z"/></g>
<g><path style="opacity:1" fill="#ca9b8c" d="M 32.5,98.5 C 32.2627,99.791 32.596,100.791 33.5,101.5C 33.281,102.675 33.6143,103.675 34.5,104.5C 35.8064,103.088 36.6397,101.421 37,99.5C 38.1581,99.9981 38.9915,100.831 39.5,102C 39.9743,106.436 39.9743,110.936 39.5,115.5C 40.5,115.5 41.5,115.5 42.5,115.5C 42.3398,113.801 42.5065,112.134 43,110.5C 43.3333,116.167 43.6667,121.833 44,127.5C 45.9986,129.493 47.4986,131.827 48.5,134.5C 47.3984,135.176 46.3984,135.842 45.5,136.5C 45.5,136.833 45.5,137.167 45.5,137.5C 44.596,136.791 44.2627,135.791 44.5,134.5C 45.2389,134.631 45.9056,134.464 46.5,134C 40.6841,129.663 39.0174,123.996 41.5,117C 40.552,116.517 39.552,116.351 38.5,116.5C 38.8174,113.428 38.4841,110.428 37.5,107.5C 36.2638,106.754 34.9305,106.421 33.5,106.5C 32.9101,105.234 32.4101,103.901 32,102.5C 31.9977,105.051 31.1644,107.051 29.5,108.5C 29.5902,104.786 30.5902,101.452 32.5,98.5 Z"/></g>
<g><path style="opacity:1" fill="#d0bfb4" d="M 202.5,117.5 C 205.385,122.315 204.885,126.982 201,131.5C 200.51,130.207 200.343,128.873 200.5,127.5C 201.323,124.316 201.99,120.983 202.5,117.5 Z"/></g>
<g><path style="opacity:1" fill="#392f2c" d="M 43.5,96.5 C 45.3868,101.872 46.3868,107.539 46.5,113.5C 46.3341,118.511 46.5007,123.511 47,128.5C 48.0319,130.027 49.1986,131.36 50.5,132.5C 49.7659,133.708 49.4326,135.041 49.5,136.5C 48.1667,136.5 46.8333,136.5 45.5,136.5C 46.3984,135.842 47.3984,135.176 48.5,134.5C 47.4986,131.827 45.9986,129.493 44,127.5C 43.6667,121.833 43.3333,116.167 43,110.5C 42.5065,112.134 42.3398,113.801 42.5,115.5C 41.5,115.5 40.5,115.5 39.5,115.5C 39.9743,110.936 39.9743,106.436 39.5,102C 38.9915,100.831 38.1581,99.9981 37,99.5C 36.6397,101.421 35.8064,103.088 34.5,104.5C 33.6143,103.675 33.281,102.675 33.5,101.5C 33.2275,99.0418 34.2275,97.3751 36.5,96.5C 40.3117,98.8166 42.8117,102.15 44,106.5C 44.3876,103.151 44.2209,99.8175 43.5,96.5 Z"/></g>
<g><path style="opacity:1" fill="#5c4845" d="M 116.5,92.5 C 117.288,100.809 117.621,109.142 117.5,117.5C 117.326,119.861 116.993,122.194 116.5,124.5C 116.271,126.433 115.438,128.1 114,129.5C 113.503,132.146 113.336,134.813 113.5,137.5C 112.223,136.306 111.556,134.64 111.5,132.5C 111.651,129.881 112.485,127.547 114,125.5C 113.852,114.121 114.685,103.121 116.5,92.5 Z"/></g>
<g><path style="opacity:1" fill="#f9cdbc" d="M 217.5,106.5 C 219.084,116.302 216.417,124.635 209.5,131.5C 211.132,126.639 210.799,121.972 208.5,117.5C 209.602,116.824 210.602,116.158 211.5,115.5C 211.5,112.833 211.5,110.167 211.5,107.5C 213.5,107.167 215.5,106.833 217.5,106.5 Z"/></g>
<g><path style="opacity:1" fill="#453935" d="M 215.5,97.5 C 216.39,99.7819 216.556,102.115 216,104.5C 213.93,97.9305 212.097,98.0971 210.5,105C 210.743,105.902 211.077,106.735 211.5,107.5C 211.5,110.167 211.5,112.833 211.5,115.5C 210.5,115.5 209.5,115.5 208.5,115.5C 208.66,113.801 208.494,112.134 208,110.5C 207.83,116.196 207.33,121.862 206.5,127.5C 203.93,130.052 202.263,133.052 201.5,136.5C 202.791,136.263 203.791,136.596 204.5,137.5C 202.5,137.5 200.5,137.5 198.5,137.5C 198.737,138.791 198.404,139.791 197.5,140.5C 197.882,135.908 198.882,131.575 200.5,127.5C 200.343,128.873 200.51,130.207 201,131.5C 204.885,126.982 205.385,122.315 202.5,117.5C 203.965,111.267 205.632,105.267 207.5,99.5C 207.343,100.873 207.51,102.207 208,103.5C 209.5,101.333 211,99.1667 212.5,97C 213.749,96.2599 214.749,96.4265 215.5,97.5 Z"/></g>
<g><path style="opacity:1" fill="#efdbd0" d="M 33.5,106.5 C 33.3342,111.179 33.5008,115.845 34,120.5C 35.798,123.678 37.298,127.012 38.5,130.5C 39.9688,132.636 41.9688,133.97 44.5,134.5C 44.2627,135.791 44.596,136.791 45.5,137.5C 47.1667,137.5 48.8333,137.5 50.5,137.5C 53.2306,143.642 51.2306,146.309 44.5,145.5C 39.0043,139.184 34.5043,132.184 31,124.5C 29.661,119.264 29.161,113.93 29.5,108.5C 31.1644,107.051 31.9977,105.051 32,102.5C 32.4101,103.901 32.9101,105.234 33.5,106.5 Z"/></g>
<g><path style="opacity:1" fill="#f9cdbc" d="M 33.5,106.5 C 34.9305,106.421 36.2638,106.754 37.5,107.5C 38.4841,110.428 38.8174,113.428 38.5,116.5C 39.552,116.351 40.552,116.517 41.5,117C 39.0174,123.996 40.6841,129.663 46.5,134C 45.9056,134.464 45.2389,134.631 44.5,134.5C 41.9688,133.97 39.9688,132.636 38.5,130.5C 37.298,127.012 35.798,123.678 34,120.5C 33.5008,115.845 33.3342,111.179 33.5,106.5 Z"/></g>
<g><path style="opacity:1" fill="#ebd8cd" d="M 218.5,97.5 C 218.749,100.002 219.083,102.502 219.5,105C 219.608,106.681 220.275,107.848 221.5,108.5C 220.811,122.874 215.478,135.207 205.5,145.5C 200.257,147.601 197.59,145.934 197.5,140.5C 198.404,139.791 198.737,138.791 198.5,137.5C 200.5,137.5 202.5,137.5 204.5,137.5C 205.862,135.3 207.529,133.3 209.5,131.5C 216.417,124.635 219.084,116.302 217.5,106.5C 217.664,103.813 217.497,101.146 217,98.5C 216.617,97.944 216.117,97.6107 215.5,97.5C 214.749,96.4265 213.749,96.2599 212.5,97C 211,99.1667 209.5,101.333 208,103.5C 207.51,102.207 207.343,100.873 207.5,99.5C 207.432,91.3514 210.932,88.6847 218,91.5C 218.495,93.4727 218.662,95.4727 218.5,97.5 Z"/></g>
<g><path style="opacity:1" fill="#7b706a" d="M 218.5,97.5 C 220.258,100.854 221.258,104.521 221.5,108.5C 220.275,107.848 219.608,106.681 219.5,105C 219.083,102.502 218.749,100.002 218.5,97.5 Z"/></g>
<g><path style="opacity:1" fill="#b5887b" d="M 215.5,97.5 C 216.117,97.6107 216.617,97.944 217,98.5C 217.497,101.146 217.664,103.813 217.5,106.5C 215.5,106.833 213.5,107.167 211.5,107.5C 211.077,106.735 210.743,105.902 210.5,105C 212.097,98.0971 213.93,97.9305 216,104.5C 216.556,102.115 216.39,99.7819 215.5,97.5 Z"/></g>
<g><path style="opacity:1" fill="#5c4307" d="M 47.5,97.5 C 47.8333,97.5 48.1667,97.5 48.5,97.5C 49.1587,100.455 49.4921,103.455 49.5,106.5C 47.8819,103.829 47.2153,100.829 47.5,97.5 Z"/></g>
<g><path style="opacity:1" fill="#d8a619" d="M 48.5,97.5 C 50.8333,97.5 53.1667,97.5 55.5,97.5C 56.6494,109.264 59.3161,120.597 63.5,131.5C 65.9662,139.498 71.4662,143.498 80,143.5C 85.49,142.391 90.99,141.391 96.5,140.5C 95.6473,142.893 93.9806,144.226 91.5,144.5C 91.281,145.675 91.6143,146.675 92.5,147.5C 94.8333,146.5 96.5,144.833 97.5,142.5C 99.396,141.534 101.396,141.201 103.5,141.5C 104.309,142.469 105.309,143.302 106.5,144C 109.825,144.139 112.825,145.139 115.5,147C 124.066,148.063 132.399,147.397 140.5,145C 143.233,144.096 145.567,142.596 147.5,140.5C 151.366,141.696 154.366,144.03 156.5,147.5C 157.776,146.386 157.776,145.386 156.5,144.5C 159.48,143.693 162.647,143.693 166,144.5C 169.116,144.511 171.949,143.845 174.5,142.5C 176.137,141.62 177.97,140.954 180,140.5C 181.31,139.87 182.144,138.87 182.5,137.5C 189.816,125.216 194.15,111.882 195.5,97.5C 197.833,97.5 200.167,97.5 202.5,97.5C 201.258,107.563 199.592,117.563 197.5,127.5C 197.167,127.5 196.833,127.5 196.5,127.5C 196.839,122.633 195.672,122.299 193,126.5C 189.462,138.008 185.629,149.341 181.5,160.5C 178.533,161.42 175.867,162.92 173.5,165C 174.489,167.158 176.156,168.325 178.5,168.5C 177.257,170.578 175.59,172.412 173.5,174C 167.372,176.563 161.705,179.897 156.5,184C 152.771,186.231 148.771,187.731 144.5,188.5C 141.784,188.386 139.784,189.386 138.5,191.5C 135.833,191.833 133.167,192.167 130.5,192.5C 125.77,192.717 121.103,192.383 116.5,191.5C 115.5,191.5 114.5,191.5 113.5,191.5C 112.082,189.692 110.082,189.025 107.5,189.5C 95.5873,185.673 84.5873,180.007 74.5,172.5C 76.1992,172.66 77.8659,172.494 79.5,172C 75.5879,170.287 75.5879,168.453 79.5,166.5C 77.7801,165.066 75.7801,164.233 73.5,164C 73.9574,163.586 74.2907,163.086 74.5,162.5C 72.2573,161.526 69.924,161.192 67.5,161.5C 64.5698,152.076 61.4031,142.743 58,133.5C 56.9588,127.721 56.2922,122.388 56,117.5C 54.6667,116.833 53.6667,115.833 53,114.5C 52.5172,115.448 52.3505,116.448 52.5,117.5C 51.2749,116.848 50.6083,115.681 50.5,114C 50.0828,111.502 49.7495,109.002 49.5,106.5C 49.4921,103.455 49.1587,100.455 48.5,97.5 Z"/></g>
<g><path style="opacity:1" fill="#eec1aa" d="M 130.5,181.5 C 135.513,179.33 139.513,175.83 142.5,171C 133.455,172.421 124.288,173.587 115,174.5C 112.958,174.385 110.958,174.051 109,173.5C 107.174,174.01 107.007,174.844 108.5,176C 111.539,178.578 114.872,180.412 118.5,181.5C 118.265,182.097 117.765,182.43 117,182.5C 105.154,178.832 96.4875,171.499 91,160.5C 90.5065,158.866 90.3398,157.199 90.5,155.5C 100.509,155.249 110.509,154.749 120.5,154C 122.663,151.067 124.996,151.067 127.5,154C 129.833,154.167 132.167,154.333 134.5,154.5C 143.157,153.579 151.823,153.413 160.5,154C 156.44,159.846 152.94,166.013 150,172.5C 144.87,178.463 138.37,181.463 130.5,181.5 Z"/></g>
<g><path style="opacity:1" fill="#d09987" d="M 130.5,181.5 C 128.621,180.659 126.621,180.325 124.5,180.5C 125.681,178.933 127.347,178.099 129.5,178C 126.907,177.463 124.407,176.63 122,175.5C 119.181,175.993 116.681,177.16 114.5,179C 116.488,179.18 118.488,179.014 120.5,178.5C 120.5,179.5 120.5,180.5 120.5,181.5C 119.833,181.5 119.167,181.5 118.5,181.5C 114.872,180.412 111.539,178.578 108.5,176C 107.007,174.844 107.174,174.01 109,173.5C 110.958,174.051 112.958,174.385 115,174.5C 124.288,173.587 133.455,172.421 142.5,171C 139.513,175.83 135.513,179.33 130.5,181.5 Z"/></g>
<g><path style="opacity:1" fill="#745347" d="M 124.5,180.5 C 123.041,180.433 121.708,180.766 120.5,181.5C 120.5,180.5 120.5,179.5 120.5,178.5C 118.488,179.014 116.488,179.18 114.5,179C 116.681,177.16 119.181,175.993 122,175.5C 124.407,176.63 126.907,177.463 129.5,178C 127.347,178.099 125.681,178.933 124.5,180.5 Z"/></g>
<g><path style="opacity:1" fill="#3c3736" d="M 154.5,157.5 C 150.863,160.136 147.529,163.136 144.5,166.5C 131.154,168.724 117.821,168.891 104.5,167C 101.688,165.023 99.0217,162.856 96.5,160.5C 98.0225,158.717 100.023,158.051 102.5,158.5C 119.199,158.345 135.865,157.678 152.5,156.5C 153.416,156.543 154.083,156.876 154.5,157.5 Z"/></g>
<g><path style="opacity:1" fill="#c3cdd2" d="M 138.5,158.5 C 141.898,158.18 145.232,158.513 148.5,159.5C 147.167,160.833 145.833,162.167 144.5,163.5C 134.037,164.978 123.537,166.311 113,167.5C 108.766,166.622 104.933,164.789 101.5,162C 114.165,161.279 126.498,160.112 138.5,158.5 Z"/></g>
<g><path style="opacity:1" fill="#c28f7f" d="M 154.5,157.5 C 154.083,156.876 153.416,156.543 152.5,156.5C 135.865,157.678 119.199,158.345 102.5,158.5C 118.655,157.079 134.988,156.079 151.5,155.5C 152.833,155.833 154.167,156.167 155.5,156.5C 155.376,157.107 155.043,157.44 154.5,157.5 Z"/></g>
<g><path style="opacity:1" fill="#ecbd7f" d="M 154.5,142.5 C 161.167,142.5 167.833,142.5 174.5,142.5C 171.949,143.845 169.116,144.511 166,144.5C 162.647,143.693 159.48,143.693 156.5,144.5C 155.5,144.167 154.833,143.5 154.5,142.5 Z"/></g>
<g><path style="opacity:1" fill="#413024" d="M 148.5,134.5 C 147.659,136.379 147.325,138.379 147.5,140.5C 145.567,142.596 143.233,144.096 140.5,145C 132.399,147.397 124.066,148.063 115.5,147C 112.825,145.139 109.825,144.139 106.5,144C 105.309,143.302 104.309,142.469 103.5,141.5C 102.488,140.128 101.488,138.795 100.5,137.5C 100.427,135.973 101.094,134.973 102.5,134.5C 103.222,134.082 103.722,133.416 104,132.5C 104.218,135.426 104.718,138.26 105.5,141C 108.828,142.166 112.161,143.332 115.5,144.5C 116.711,143.726 116.711,142.893 115.5,142C 113.833,141.667 112.167,141.333 110.5,141C 114.898,139.625 118.232,140.958 120.5,145C 121.5,145.167 122.5,145.333 123.5,145.5C 127.084,144.228 130.417,142.562 133.5,140.5C 136.29,140.222 138.79,140.889 141,142.5C 143.96,141.872 145.46,140.039 145.5,137C 145.057,135.175 144.723,133.342 144.5,131.5C 146.619,131.468 147.952,132.468 148.5,134.5 Z"/></g>
<g><path style="opacity:1" fill="#77593f" d="M 148.5,134.5 C 150.789,136.811 152.789,139.478 154.5,142.5C 154.833,143.5 155.5,144.167 156.5,144.5C 157.776,145.386 157.776,146.386 156.5,147.5C 154.366,144.03 151.366,141.696 147.5,140.5C 147.325,138.379 147.659,136.379 148.5,134.5 Z"/></g>
<g><path style="opacity:1" fill="#705234" d="M 100.5,137.5 C 101.488,138.795 102.488,140.128 103.5,141.5C 101.396,141.201 99.396,141.534 97.5,142.5C 96.5,144.833 94.8333,146.5 92.5,147.5C 91.6143,146.675 91.281,145.675 91.5,144.5C 93.9806,144.226 95.6473,142.893 96.5,140.5C 97.5261,139.147 98.8595,138.147 100.5,137.5 Z"/></g>
<g><path style="opacity:1" fill="#f7cbb7" d="M 68.5,118.5 C 73.0893,120.867 78.0893,121.867 83.5,121.5C 88.4122,121.579 93.0789,120.912 97.5,119.5C 98.5,119.5 99.5,119.5 100.5,119.5C 101.167,124.5 101.833,129.5 102.5,134.5C 101.094,134.973 100.427,135.973 100.5,137.5C 98.8595,138.147 97.5261,139.147 96.5,140.5C 90.99,141.391 85.49,142.391 80,143.5C 71.4662,143.498 65.9662,139.498 63.5,131.5C 64.2389,131.631 64.9056,131.464 65.5,131C 64.3895,128.263 64.2228,125.429 65,122.5C 67.0714,121.897 68.2381,120.564 68.5,118.5 Z"/></g>
<g><path style="opacity:1" fill="#cf9887" d="M 116.5,92.5 C 114.685,103.121 113.852,114.121 114,125.5C 112.485,127.547 111.651,129.881 111.5,132.5C 111.556,134.64 112.223,136.306 113.5,137.5C 114.808,138.232 116.142,139.066 117.5,140C 122.823,140.499 128.156,140.666 133.5,140.5C 130.417,142.562 127.084,144.228 123.5,145.5C 122.5,145.333 121.5,145.167 120.5,145C 118.232,140.958 114.898,139.625 110.5,141C 112.167,141.333 113.833,141.667 115.5,142C 116.711,142.893 116.711,143.726 115.5,144.5C 112.161,143.332 108.828,142.166 105.5,141C 104.718,138.26 104.218,135.426 104,132.5C 103.722,133.416 103.222,134.082 102.5,134.5C 101.833,129.5 101.167,124.5 100.5,119.5C 99.5,119.5 98.5,119.5 97.5,119.5C 98.9002,118.9 99.9002,117.9 100.5,116.5C 101.11,115.609 101.443,114.609 101.5,113.5C 102.79,112.942 103.623,111.942 104,110.5C 106.007,106.273 105.841,102.273 103.5,98.5C 104.404,97.791 104.737,96.791 104.5,95.5C 107.096,93.941 109.763,92.2743 112.5,90.5C 114.171,90.6682 115.504,91.3349 116.5,92.5 Z"/></g>
<g><path style="opacity:1" fill="#e8d5ca" d="M 43.5,96.5 C 44.2209,99.8175 44.3876,103.151 44,106.5C 42.8117,102.15 40.3117,98.8166 36.5,96.5C 34.2275,97.3751 33.2275,99.0418 33.5,101.5C 32.596,100.791 32.2627,99.791 32.5,98.5C 32.3367,96.1432 32.5034,93.8098 33,91.5C 35.3149,89.1699 37.8149,89.1699 40.5,91.5C 42.2779,92.7258 43.2779,94.3925 43.5,96.5 Z"/></g>
<g><path style="opacity:1" fill="#f8ccba" d="M 180.5,70.5 C 170.715,70.9159 161.715,73.7492 153.5,79C 150.899,79.9203 148.232,80.587 145.5,81C 144.748,81.6708 144.414,82.5041 144.5,83.5C 143.259,81.0688 142.092,81.0688 141,83.5C 140.751,82.376 140.251,81.376 139.5,80.5C 134.726,82.9046 133.393,86.5712 135.5,91.5C 137.409,90.6518 139.409,90.3184 141.5,90.5C 140.638,99.7571 141.971,108.59 145.5,117C 151.061,120.765 157.228,122.265 164,121.5C 170.161,121.879 175.994,120.879 181.5,118.5C 181.948,121.676 182.948,124.676 184.5,127.5C 183.558,130.137 182.558,132.804 181.5,135.5C 181.543,136.416 181.876,137.083 182.5,137.5C 182.144,138.87 181.31,139.87 180,140.5C 177.97,140.954 176.137,141.62 174.5,142.5C 167.833,142.5 161.167,142.5 154.5,142.5C 152.789,139.478 150.789,136.811 148.5,134.5C 147.952,132.468 146.619,131.468 144.5,131.5C 144.723,133.342 145.057,135.175 145.5,137C 145.46,140.039 143.96,141.872 141,142.5C 138.79,140.889 136.29,140.222 133.5,140.5C 128.156,140.666 122.823,140.499 117.5,140C 116.142,139.066 114.808,138.232 113.5,137.5C 113.336,134.813 113.503,132.146 114,129.5C 115.438,128.1 116.271,126.433 116.5,124.5C 119.518,124.665 122.518,124.498 125.5,124C 126.973,123.29 127.64,122.124 127.5,120.5C 124.452,118.707 121.118,117.707 117.5,117.5C 117.621,109.142 117.288,100.809 116.5,92.5C 115.504,91.3349 114.171,90.6682 112.5,90.5C 109.763,92.2743 107.096,93.941 104.5,95.5C 104.5,95.1667 104.5,94.8333 104.5,94.5C 106.092,91.0336 106.758,87.3669 106.5,83.5C 108.973,82.6914 111.306,82.358 113.5,82.5C 114.357,79.5491 114.357,76.5491 113.5,73.5C 111.876,73.3601 110.71,74.0267 110,75.5C 97.9057,74.3159 85.739,74.3159 73.5,75.5C 72.791,76.404 71.791,76.7373 70.5,76.5C 70.335,73.1501 70.5017,69.8168 71,66.5C 75.4846,53.5662 79.818,40.5662 84,27.5C 90.6906,18.9144 99.5239,14.0811 110.5,13C 127.394,10.0163 143.06,12.8497 157.5,21.5C 159.817,23.316 161.984,25.316 164,27.5C 166,31.5 168,35.5 170,39.5C 173.314,49.9089 176.814,60.2422 180.5,70.5 Z"/></g>
<g><path style="opacity:1" fill="#f6e3d6" d="M 86.5,-0.5 C 112.5,-0.5 138.5,-0.5 164.5,-0.5C 169.829,3.2605 175.329,6.92717 181,10.5C 184.079,14.2779 187.245,17.9446 190.5,21.5C 204.418,44.6092 208.918,69.6092 204,96.5C 203.617,97.056 203.117,97.3893 202.5,97.5C 200.167,97.5 197.833,97.5 195.5,97.5C 194.15,111.882 189.816,125.216 182.5,137.5C 181.876,137.083 181.543,136.416 181.5,135.5C 182.558,132.804 183.558,130.137 184.5,127.5C 182.948,124.676 181.948,121.676 181.5,118.5C 185.684,113.014 186.517,107.014 184,100.5C 183.802,102.382 183.302,104.048 182.5,105.5C 182.635,102.583 181.968,99.9158 180.5,97.5C 181.043,97.44 181.376,97.1067 181.5,96.5C 180.141,94.4822 178.807,92.4822 177.5,90.5C 177.369,89.7611 177.536,89.0944 178,88.5C 179.599,90.0356 181.433,90.5356 183.5,90C 181.944,89.2798 180.944,88.1132 180.5,86.5C 181.089,84.6023 181.256,82.6023 181,80.5C 183.034,79.1379 185.201,78.1379 187.5,77.5C 187.715,75.8212 187.048,74.8212 185.5,74.5C 184.461,72.4689 182.795,71.1355 180.5,70.5C 176.814,60.2422 173.314,49.9089 170,39.5C 168,35.5 166,31.5 164,27.5C 161.984,25.316 159.817,23.316 157.5,21.5C 143.06,12.8497 127.394,10.0163 110.5,13C 99.5239,14.0811 90.6906,18.9144 84,27.5C 79.818,40.5662 75.4846,53.5662 71,66.5C 70.5017,69.8168 70.335,73.1501 70.5,76.5C 68.5327,78.3039 66.6993,80.3039 65,82.5C 64.3083,83.4368 64.475,84.1034 65.5,84.5C 66.925,85.922 67.925,87.5887 68.5,89.5C 68.1667,90.1667 67.8333,90.8333 67.5,91.5C 68.9002,92.1001 69.9002,93.1001 70.5,94.5C 70.6716,95.4916 70.3382,96.1583 69.5,96.5C 64.9821,98.6278 62.9821,102.294 63.5,107.5C 63.4086,112.044 65.0753,115.711 68.5,118.5C 68.2381,120.564 67.0714,121.897 65,122.5C 64.2228,125.429 64.3895,128.263 65.5,131C 64.9056,131.464 64.2389,131.631 63.5,131.5C 59.3161,120.597 56.6494,109.264 55.5,97.5C 53.1667,97.5 50.8333,97.5 48.5,97.5C 48.1667,97.5 47.8333,97.5 47.5,97.5C 46.3934,85.1997 46.2268,72.8663 47,60.5C 49.1355,54.1575 50.6355,47.6575 51.5,41C 52.8333,39 54.1667,37 55.5,35C 61.1531,18.8947 71.4864,7.06136 86.5,-0.5 Z"/></g>
<g><path style="opacity:1" fill="#d7a08e" d="M 117.5,117.5 C 121.118,117.707 124.452,118.707 127.5,120.5C 127.64,122.124 126.973,123.29 125.5,124C 122.518,124.498 119.518,124.665 116.5,124.5C 116.993,122.194 117.326,119.861 117.5,117.5 Z"/></g>
<g><path style="opacity:1" fill="#b6877c" d="M 147.5,91.5 C 147.046,93.7411 147.046,95.7411 147.5,97.5C 145.697,99.0043 144.697,101.004 144.5,103.5C 144.874,107.302 146.207,110.635 148.5,113.5C 149.091,114.151 149.757,114.818 150.5,115.5C 159.5,116.833 168.5,116.833 177.5,115.5C 178.55,114.571 178.55,113.905 177.5,113.5C 177.694,111.088 179.027,110.088 181.5,110.5C 181.629,108.784 181.962,107.117 182.5,105.5C 183.302,104.048 183.802,102.382 184,100.5C 186.517,107.014 185.684,113.014 181.5,118.5C 175.994,120.879 170.161,121.879 164,121.5C 157.228,122.265 151.061,120.765 145.5,117C 141.971,108.59 140.638,99.7571 141.5,90.5C 143.06,90.4809 144.56,90.1476 146,89.5C 147.03,89.8361 147.53,90.5028 147.5,91.5 Z"/></g>
<g><path style="opacity:1" fill="#b78b81" d="M 69.5,96.5 C 69.3284,97.4916 69.6618,98.1583 70.5,98.5C 67.089,101.54 66.589,105.207 69,109.5C 70.1451,110.636 71.3117,111.636 72.5,112.5C 70.5096,112.993 70.5096,114.16 72.5,116C 81.8274,116.5 91.1607,116.666 100.5,116.5C 99.9002,117.9 98.9002,118.9 97.5,119.5C 93.0789,120.912 88.4122,121.579 83.5,121.5C 78.0893,121.867 73.0893,120.867 68.5,118.5C 65.0753,115.711 63.4086,112.044 63.5,107.5C 62.9821,102.294 64.9821,98.6278 69.5,96.5 Z"/></g>
<g><path style="opacity:1" fill="#413834" d="M 72.5,112.5 C 82.0838,113.473 91.7504,113.806 101.5,113.5C 101.443,114.609 101.11,115.609 100.5,116.5C 91.1607,116.666 81.8274,116.5 72.5,116C 70.5096,114.16 70.5096,112.993 72.5,112.5 Z"/></g>
<g><path style="opacity:1" fill="#2e2523" d="M 148.5,113.5 C 158.167,113.5 167.833,113.5 177.5,113.5C 178.55,113.905 178.55,114.571 177.5,115.5C 168.5,116.833 159.5,116.833 150.5,115.5C 149.757,114.818 149.091,114.151 148.5,113.5 Z"/></g>
<g><path style="opacity:1" fill="#2c5577" d="M 100.5,96.5 C 97.2391,96.1005 96.5724,97.2671 98.5,100C 97.0821,108.387 92.0821,111.72 83.5,110C 77.7643,106.813 76.0977,102.146 78.5,96C 76.8034,95.6155 75.1368,95.7822 73.5,96.5C 74.1342,95.0532 75.3009,94.3866 77,94.5C 84.9881,95.0891 92.8214,95.7558 100.5,96.5 Z"/></g>
<g><path style="opacity:1" fill="#edeeee" d="M 100.5,96.5 C 101.71,96.9321 102.71,97.5987 103.5,98.5C 105.841,102.273 106.007,106.273 104,110.5C 103.623,111.942 102.79,112.942 101.5,113.5C 91.7504,113.806 82.0838,113.473 72.5,112.5C 71.3117,111.636 70.1451,110.636 69,109.5C 66.589,105.207 67.089,101.54 70.5,98.5C 71.2905,97.5987 72.2905,96.9321 73.5,96.5C 75.1368,95.7822 76.8034,95.6155 78.5,96C 76.0977,102.146 77.7643,106.813 83.5,110C 92.0821,111.72 97.0821,108.387 98.5,100C 96.5724,97.2671 97.2391,96.1005 100.5,96.5 Z"/></g>
<g><path style="opacity:1" fill="#277fbd" d="M 91.5,100.5 C 92.1667,100.5 92.8333,100.5 93.5,100.5C 96.0707,105.64 94.2374,108.306 88,108.5C 82.6332,108.381 79.7999,105.714 79.5,100.5C 81.1667,100.5 82.8333,100.5 84.5,100.5C 84.5,101.5 84.5,102.5 84.5,103.5C 87.6363,104.021 89.9696,103.021 91.5,100.5 Z"/></g>
<g><path style="opacity:1" fill="#ecf0f2" d="M 93.5,100.5 C 92.8333,100.5 92.1667,100.5 91.5,100.5C 90.5655,99.4324 90.2322,98.099 90.5,96.5C 92.1667,96.5 93.8333,96.5 95.5,96.5C 95.7709,98.3797 95.1042,99.713 93.5,100.5 Z"/></g>
<g><path style="opacity:1" fill="#eeeeee" d="M 175.5,94.5 C 177.149,95.4728 178.816,96.4728 180.5,97.5C 181.968,99.9158 182.635,102.583 182.5,105.5C 181.962,107.117 181.629,108.784 181.5,110.5C 179.027,110.088 177.694,111.088 177.5,113.5C 167.833,113.5 158.167,113.5 148.5,113.5C 146.207,110.635 144.874,107.302 144.5,103.5C 144.697,101.004 145.697,99.0043 147.5,97.5C 148.167,97.5 148.5,97.1667 148.5,96.5C 149.833,96.5 151.167,96.5 152.5,96.5C 152.194,99.3854 152.527,102.052 153.5,104.5C 155.088,106.319 156.754,108.153 158.5,110C 161.5,110.667 164.5,110.667 167.5,110C 168.252,109.329 168.586,108.496 168.5,107.5C 174.647,105.221 175.98,101.221 172.5,95.5C 173.325,94.6143 174.325,94.281 175.5,94.5 Z"/></g>
<g><path style="opacity:1" fill="#255075" d="M 175.5,94.5 C 174.325,94.281 173.325,94.6143 172.5,95.5C 175.98,101.221 174.647,105.221 168.5,107.5C 168.586,108.496 168.252,109.329 167.5,110C 164.5,110.667 161.5,110.667 158.5,110C 156.754,108.153 155.088,106.319 153.5,104.5C 153.342,101.098 153.676,97.7644 154.5,94.5C 157.833,94.5 161.167,94.5 164.5,94.5C 164.44,98.4851 166.44,100.152 170.5,99.5C 170.5,97.8333 170.5,96.1667 170.5,94.5C 172.284,93.2801 173.95,93.2801 175.5,94.5 Z"/></g>
<g><path style="opacity:1" fill="#2882bf" d="M 168.5,107.5 C 165.15,107.665 161.817,107.498 158.5,107C 157.667,105.5 156.5,104.333 155,103.5C 154.517,102.552 154.351,101.552 154.5,100.5C 156.199,100.34 157.866,100.506 159.5,101C 162.674,104.49 165.507,104.323 168,100.5C 169.167,101.667 170.333,102.833 171.5,104C 170.29,105.039 169.29,106.206 168.5,107.5 Z"/></g>
<g><path style="opacity:1" fill="#dfe4e8" d="M 164.5,94.5 C 166.5,94.5 168.5,94.5 170.5,94.5C 170.5,96.1667 170.5,97.8333 170.5,99.5C 166.44,100.152 164.44,98.4851 164.5,94.5 Z"/></g>
<g><path style="opacity:1" fill="#939da3" d="M 154.5,94.5 C 153.676,97.7644 153.342,101.098 153.5,104.5C 152.527,102.052 152.194,99.3854 152.5,96.5C 151.167,96.5 149.833,96.5 148.5,96.5C 150.102,94.9261 152.102,94.2594 154.5,94.5 Z"/></g>
<g><path style="opacity:1" fill="#110f0f" d="M 167.5,90.5 C 170.833,90.5 174.167,90.5 177.5,90.5C 178.807,92.4822 180.141,94.4822 181.5,96.5C 181.376,97.1067 181.043,97.44 180.5,97.5C 178.816,96.4728 177.149,95.4728 175.5,94.5C 173.95,93.2801 172.284,93.2801 170.5,94.5C 168.5,94.5 166.5,94.5 164.5,94.5C 161.167,94.5 157.833,94.5 154.5,94.5C 152.102,94.2594 150.102,94.9261 148.5,96.5C 148.5,97.1667 148.167,97.5 147.5,97.5C 147.046,95.7411 147.046,93.7411 147.5,91.5C 154.143,90.7875 160.809,90.4542 167.5,90.5 Z"/></g>
<g><path style="opacity:1" fill="#141213" d="M 89.5,90.5 C 91.717,91.3686 94.0504,91.702 96.5,91.5C 99.986,90.8285 102.653,91.8285 104.5,94.5C 104.5,94.8333 104.5,95.1667 104.5,95.5C 104.737,96.791 104.404,97.791 103.5,98.5C 102.71,97.5987 101.71,96.9321 100.5,96.5C 92.8214,95.7558 84.9881,95.0891 77,94.5C 75.3009,94.3866 74.1342,95.0532 73.5,96.5C 72.2905,96.9321 71.2905,97.5987 70.5,98.5C 69.6618,98.1583 69.3284,97.4916 69.5,96.5C 70.3382,96.1583 70.6716,95.4916 70.5,94.5C 72.1207,94.2131 73.1207,93.2131 73.5,91.5C 78.7921,90.5052 84.1254,90.1718 89.5,90.5 Z"/></g>
<g><path style="opacity:1" fill="#b28075" d="M 89.5,90.5 C 84.1254,90.1718 78.7921,90.5052 73.5,91.5C 73.1207,93.2131 72.1207,94.2131 70.5,94.5C 69.9002,93.1001 68.9002,92.1001 67.5,91.5C 71.4169,89.9407 75.5836,89.274 80,89.5C 83.3518,89.5018 86.5185,89.8351 89.5,90.5 Z"/></g>
<g><path style="opacity:1" fill="#533d37" d="M 180.5,86.5 C 180.944,88.1132 181.944,89.2798 183.5,90C 181.433,90.5356 179.599,90.0356 178,88.5C 177.536,89.0944 177.369,89.7611 177.5,90.5C 174.167,90.5 170.833,90.5 167.5,90.5C 160.935,90.1489 154.601,89.1489 148.5,87.5C 149.167,87.5 149.833,87.5 150.5,87.5C 160.491,86.945 170.491,86.6117 180.5,86.5 Z"/></g>
<g><path style="opacity:1" fill="#533b35" d="M 96.5,91.5 C 94.0504,91.702 91.717,91.3686 89.5,90.5C 86.5185,89.8351 83.3518,89.5018 80,89.5C 75.5836,89.274 71.4169,89.9407 67.5,91.5C 67.8333,90.8333 68.1667,90.1667 68.5,89.5C 70.5518,87.0775 73.2185,86.0775 76.5,86.5C 84.4794,87.3235 92.4794,87.6568 100.5,87.5C 100.5,88.5 100.5,89.5 100.5,90.5C 98.901,90.2322 97.5676,90.5655 96.5,91.5 Z"/></g>
<g><path style="opacity:1" fill="#a57d60" d="M 144.5,83.5 C 143.566,85.2385 143.566,86.9052 144.5,88.5C 145.736,87.7542 147.07,87.4208 148.5,87.5C 154.601,89.1489 160.935,90.1489 167.5,90.5C 160.809,90.4542 154.143,90.7875 147.5,91.5C 147.53,90.5028 147.03,89.8361 146,89.5C 144.56,90.1476 143.06,90.4809 141.5,90.5C 139.409,90.3184 137.409,90.6518 135.5,91.5C 133.393,86.5712 134.726,82.9046 139.5,80.5C 140.251,81.376 140.751,82.376 141,83.5C 142.092,81.0688 143.259,81.0688 144.5,83.5 Z"/></g>
<g><path style="opacity:1" fill="#cd9684" d="M 106.5,83.5 C 106.758,87.3669 106.092,91.0336 104.5,94.5C 102.653,91.8285 99.986,90.8285 96.5,91.5C 97.5676,90.5655 98.901,90.2322 100.5,90.5C 100.5,89.5 100.5,88.5 100.5,87.5C 92.4794,87.6568 84.4794,87.3235 76.5,86.5C 73.2185,86.0775 70.5518,87.0775 68.5,89.5C 67.925,87.5887 66.925,85.922 65.5,84.5C 66.8333,84.1667 68.1667,83.8333 69.5,83.5C 81.8401,82.1884 94.1734,82.1884 106.5,83.5 Z"/></g>
<g><path style="opacity:1" fill="#ae8460" d="M 106.5,83.5 C 94.1734,82.1884 81.8401,82.1884 69.5,83.5C 70.2625,82.7321 71.2625,82.2321 72.5,82C 83.8333,81.6667 95.1667,81.3333 106.5,81C 104.963,79.8904 104.297,78.3904 104.5,76.5C 94.1876,75.6954 83.8542,75.362 73.5,75.5C 85.739,74.3159 97.9057,74.3159 110,75.5C 110.71,74.0267 111.876,73.3601 113.5,73.5C 114.357,76.5491 114.357,79.5491 113.5,82.5C 111.306,82.358 108.973,82.6914 106.5,83.5 Z"/></g>
<g><path style="opacity:1" fill="#d09a86" d="M 185.5,74.5 C 187.048,74.8212 187.715,75.8212 187.5,77.5C 185.201,78.1379 183.034,79.1379 181,80.5C 181.256,82.6023 181.089,84.6023 180.5,86.5C 170.491,86.6117 160.491,86.945 150.5,87.5C 153.351,85.1489 156.518,83.1489 160,81.5C 164.562,80.9882 168.729,79.4882 172.5,77C 177.28,77.1084 181.614,76.275 185.5,74.5 Z"/></g>
<g><path style="opacity:1" fill="#825c26" d="M 73.5,75.5 C 83.8542,75.362 94.1876,75.6954 104.5,76.5C 104.297,78.3904 104.963,79.8904 106.5,81C 95.1667,81.3333 83.8333,81.6667 72.5,82C 71.2625,82.2321 70.2625,82.7321 69.5,83.5C 68.1667,83.8333 66.8333,84.1667 65.5,84.5C 64.475,84.1034 64.3083,83.4368 65,82.5C 66.6993,80.3039 68.5327,78.3039 70.5,76.5C 71.791,76.7373 72.791,76.404 73.5,75.5 Z"/></g>
<g><path style="opacity:1" fill="#87612d" d="M 180.5,70.5 C 182.795,71.1355 184.461,72.4689 185.5,74.5C 181.614,76.275 177.28,77.1084 172.5,77C 168.729,79.4882 164.562,80.9882 160,81.5C 156.518,83.1489 153.351,85.1489 150.5,87.5C 149.833,87.5 149.167,87.5 148.5,87.5C 147.07,87.4208 145.736,87.7542 144.5,88.5C 143.566,86.9052 143.566,85.2385 144.5,83.5C 144.414,82.5041 144.748,81.6708 145.5,81C 148.232,80.587 150.899,79.9203 153.5,79C 161.715,73.7492 170.715,70.9159 180.5,70.5 Z"/></g>
<g><path style="opacity:1" fill="#8c675c" d="M 170.5,57.5 C 166.768,59.4105 162.768,61.0771 158.5,62.5C 160.18,55.4242 164.18,53.7576 170.5,57.5 Z"/></g>
<g><path style="opacity:1" fill="#53443e" d="M 157.5,28.5 C 158.656,35.9887 158.822,43.6554 158,51.5C 156.951,55.265 155.618,58.9317 154,62.5C 153.421,61.0715 153.588,59.7382 154.5,58.5C 154.28,55.5995 154.946,52.9329 156.5,50.5C 157.497,43.1968 157.831,35.8635 157.5,28.5 Z"/></g>
<g><path style="opacity:1" fill="#d8afa0" d="M 157.5,28.5 C 157.56,27.9569 157.893,27.6236 158.5,27.5C 159.331,34.8108 159.831,42.1441 160,49.5C 162.243,45.8691 163.077,41.8691 162.5,37.5C 163.833,37.5 165.167,37.5 166.5,37.5C 166.338,39.5273 166.505,41.5273 167,43.5C 168.879,45.5268 170.046,47.8602 170.5,50.5C 173.084,51.0483 174.084,52.715 173.5,55.5C 171.821,55.2852 170.821,55.9519 170.5,57.5C 164.18,53.7576 160.18,55.4242 158.5,62.5C 155.932,63.4496 153.432,63.4496 151,62.5C 150.273,64.953 149.273,67.2864 148,69.5C 147.192,67.4213 147.359,65.4213 148.5,63.5C 150.696,62.048 152.696,60.3813 154.5,58.5C 153.588,59.7382 153.421,61.0715 154,62.5C 155.618,58.9317 156.951,55.265 158,51.5C 158.822,43.6554 158.656,35.9887 157.5,28.5 Z"/></g>
<g><path style="opacity:1" fill="#664f47" d="M 170.5,50.5 C 170.953,51.4584 171.619,52.2917 172.5,53C 165.572,54.0722 162.572,51.0722 163.5,44C 163.833,42.1667 164.167,40.3333 164.5,38.5C 164.195,42.1859 164.695,45.8526 166,49.5C 167.356,50.3802 168.856,50.7135 170.5,50.5 Z"/></g>
<g><path style="opacity:1" fill="#53423b" d="M 88.5,185.5 C 87.9695,187.924 87.1362,190.257 86,192.5C 83.9565,194.208 82.2899,196.208 81,198.5C 80.7489,209.528 80.0822,220.528 79,231.5C 76.6862,235.975 73.5196,239.642 69.5,242.5C 63.2689,244.006 56.9355,244.673 50.5,244.5C 49.833,242.181 49.6664,239.847 50,237.5C 50.7724,236.151 51.9391,235.318 53.5,235C 50.999,233.582 51.3323,232.582 54.5,232C 53.4477,230.284 54.1144,229.284 56.5,229C 55.8333,228.667 55.1667,228.333 54.5,228C 58.5666,224.452 60.2333,220.119 59.5,215C 61.4812,214.395 61.8146,213.395 60.5,212C 62.8856,211.716 63.5523,210.716 62.5,209C 64.5689,208.676 64.9023,207.842 63.5,206.5C 64.376,205.749 65.376,205.249 66.5,205C 66.0426,204.586 65.7093,204.086 65.5,203.5C 68.3904,199.537 71.3904,195.704 74.5,192C 77.681,189.908 80.681,187.575 83.5,185C 85.265,184.36 86.9317,184.527 88.5,185.5 Z"/></g>
<g><path style="opacity:1" fill="#55433c" d="M 198.5,239.5 C 188.603,241.579 180.436,238.912 174,231.5C 169.649,221.089 167.316,210.089 167,198.5C 165.586,193.907 163.752,189.573 161.5,185.5C 162.261,184.609 163.261,183.942 164.5,183.5C 167.843,185.504 171.176,187.504 174.5,189.5C 178.141,195.634 181.474,201.967 184.5,208.5C 185.325,209.386 186.325,209.719 187.5,209.5C 190.584,218.828 194.584,227.662 199.5,236C 198.448,237.716 199.114,238.716 201.5,239C 200.552,239.483 199.552,239.649 198.5,239.5 Z"/></g>
<g><path style="opacity:1" fill="#32251f" d="M 88.5,185.5 C 89.9221,185.75 90.9221,186.583 91.5,188C 89.1015,194.899 88.1015,202.066 88.5,209.5C 88.7722,217.884 89.2722,226.218 90,234.5C 88.3859,237.237 86.2192,239.403 83.5,241C 78.7846,241.281 74.1179,241.781 69.5,242.5C 73.5196,239.642 76.6862,235.975 79,231.5C 80.0822,220.528 80.7489,209.528 81,198.5C 82.2899,196.208 83.9565,194.208 86,192.5C 87.1362,190.257 87.9695,187.924 88.5,185.5 Z"/></g>
<g><path style="opacity:1" fill="#32261f" d="M 161.5,185.5 C 163.752,189.573 165.586,193.907 167,198.5C 167.316,210.089 169.649,221.089 174,231.5C 180.436,238.912 188.603,241.579 198.5,239.5C 189.941,240.69 181.274,240.356 172.5,238.5C 170.864,237.696 169.364,236.696 168,235.5C 166.207,233.03 164.373,230.53 162.5,228C 164.665,214.657 163.332,201.657 158.5,189C 158.278,186.725 159.278,185.559 161.5,185.5 Z"/></g>
<g><path style="opacity:1" fill="#765808" d="M 107.5,189.5 C 110.082,189.025 112.082,189.692 113.5,191.5C 111.214,191.405 109.214,190.738 107.5,189.5 Z"/></g>
<g><path style="opacity:1" fill="#6c5006" d="M 144.5,188.5 C 142.967,190.245 140.967,191.245 138.5,191.5C 139.784,189.386 141.784,188.386 144.5,188.5 Z"/></g>
<g><path style="opacity:1" fill="#52413a" d="M 211.5,214.5 C 211.5,214.833 211.5,215.167 211.5,215.5C 210.96,216.561 210.626,217.561 210.5,218.5C 207.209,213.876 203.209,209.876 198.5,206.5C 194.522,205.402 190.856,203.735 187.5,201.5C 185.455,197.994 183.122,194.494 180.5,191C 185.487,190.997 190.487,191.331 195.5,192C 206.667,194.481 212.333,201.148 212.5,212C 210.641,212.601 210.308,213.434 211.5,214.5 Z"/></g>
<g><path style="opacity:1" fill="#f2c9b9" d="M 99.5,191.5 C 100.814,195.329 103.147,198.495 106.5,201C 116.63,204.341 126.964,205.174 137.5,203.5C 139.618,201.861 141.785,200.195 144,198.5C 145.45,196.243 146.617,193.91 147.5,191.5C 149.216,191.371 150.883,191.038 152.5,190.5C 152.647,195.214 152.314,199.881 151.5,204.5C 148.709,210.235 144.042,212.901 137.5,212.5C 129.868,213.358 122.201,213.691 114.5,213.5C 99.3124,212.1 93.479,203.767 97,188.5C 98.417,189.078 99.2504,190.078 99.5,191.5 Z"/></g>
<g><path style="opacity:1" fill="#d09887" d="M 99.5,191.5 C 107.971,194.129 116.638,196.129 125.5,197.5C 133.146,196.423 140.479,194.423 147.5,191.5C 146.617,193.91 145.45,196.243 144,198.5C 141.785,200.195 139.618,201.861 137.5,203.5C 126.964,205.174 116.63,204.341 106.5,201C 103.147,198.495 100.814,195.329 99.5,191.5 Z"/></g>
<g><path style="opacity:1" fill="#684d06" d="M 116.5,191.5 C 121.103,192.383 125.77,192.717 130.5,192.5C 126.354,193.647 122.02,193.814 117.5,193C 116.944,192.617 116.611,192.117 116.5,191.5 Z"/></g>
<g><path style="opacity:1" fill="#998b84" d="M 152.5,190.5 C 153.647,194.646 153.814,198.98 153,203.5C 152.617,204.056 152.117,204.389 151.5,204.5C 152.314,199.881 152.647,195.214 152.5,190.5 Z"/></g>
<g><path style="opacity:1" fill="#31241e" d="M 66.5,196.5 C 64.5827,198.333 62.7494,200.333 61,202.5C 59.409,206.928 57.5757,211.261 55.5,215.5C 51.3939,217.707 47.0606,218.54 42.5,218C 43.3081,217.692 43.9747,217.192 44.5,216.5C 42.9951,215.158 42.3285,213.492 42.5,211.5C 43.9778,211.762 45.3112,211.429 46.5,210.5C 51.5141,203.492 58.1808,198.825 66.5,196.5 Z"/></g>
<g><path style="opacity:1" fill="#31251e" d="M 187.5,201.5 C 190.856,203.735 194.522,205.402 198.5,206.5C 203.209,209.876 207.209,213.876 210.5,218.5C 210.083,219.124 209.416,219.457 208.5,219.5C 203.735,218.283 199.069,216.783 194.5,215C 192.068,210.527 189.735,206.027 187.5,201.5 Z"/></g>
<g><path style="opacity:1" fill="#adbec5" d="M 158.5,201.5 C 159.612,212.826 159.612,224.159 158.5,235.5C 158.167,242.167 157.833,248.833 157.5,255.5C 137.5,255.5 117.5,255.5 97.5,255.5C 97.7163,253.319 96.883,251.653 95,250.5C 94.2786,243.177 93.7786,235.844 93.5,228.5C 93.176,221.646 93.5093,214.979 94.5,208.5C 96.4066,211.09 98.7399,213.257 101.5,215C 112.537,218.294 123.87,219.294 135.5,218C 141.029,216.614 146.362,214.614 151.5,212C 154.607,208.241 156.94,204.741 158.5,201.5 Z"/></g>
<g><path style="opacity:1" fill="#78625a" d="M 137.5,212.5 C 137.082,213.222 136.416,213.722 135.5,214C 128.321,214.821 121.321,214.655 114.5,213.5C 122.201,213.691 129.868,213.358 137.5,212.5 Z"/></g>
<g><path style="opacity:1" fill="#4b3c35" d="M 216.5,255.5 C 213.5,255.5 210.5,255.5 207.5,255.5C 209.319,245.628 210.652,235.628 211.5,225.5C 212.117,225.389 212.617,225.056 213,224.5C 213.61,221.173 214.11,217.839 214.5,214.5C 214.693,210.551 215.193,210.551 216,214.5C 216.5,228.163 216.667,241.829 216.5,255.5 Z"/></g>
<g><path style="opacity:1" fill="#5d676c" d="M 94.5,208.5 C 93.5093,214.979 93.176,221.646 93.5,228.5C 92.3443,221.011 92.1777,213.345 93,205.5C 94.0386,206.244 94.5386,207.244 94.5,208.5 Z"/></g>
<g><path style="opacity:1" fill="#30241e" d="M 211.5,215.5 C 211.5,215.167 211.5,214.833 211.5,214.5C 212.5,214.5 213.5,214.5 214.5,214.5C 214.11,217.839 213.61,221.173 213,224.5C 212.617,225.056 212.117,225.389 211.5,225.5C 209.058,225.354 208.391,226.187 209.5,228C 208.552,228.483 207.552,228.649 206.5,228.5C 206.467,232.969 206.801,237.136 207.5,241C 205.261,245.452 204.261,250.285 204.5,255.5C 194.167,255.5 183.833,255.5 173.5,255.5C 175.933,251.232 179.266,247.732 183.5,245C 189.5,244.667 195.5,244.333 201.5,244C 204.202,241.796 205.035,238.963 204,235.5C 201.23,229.977 199.063,224.31 197.5,218.5C 201.041,219.759 204.708,220.759 208.5,221.5C 208.5,222.5 208.5,223.5 208.5,224.5C 210.124,224.64 211.29,223.973 212,222.5C 212.796,219.961 212.629,217.628 211.5,215.5 Z"/></g>
<g><path style="opacity:1" fill="#334e61" d="M 218.5,211.5 C 219.117,211.611 219.617,211.944 220,212.5C 220.5,226.829 220.667,241.163 220.5,255.5C 220.167,255.5 219.833,255.5 219.5,255.5C 219.8,240.785 219.467,226.118 218.5,211.5 Z"/></g>
<g><path style="opacity:1" fill="#515a5c" d="M 158.5,201.5 C 159.29,202.609 159.79,203.942 160,205.5C 160.167,209.667 160.333,213.833 160.5,218C 160.701,224.083 160.034,229.916 158.5,235.5C 159.612,224.159 159.612,212.826 158.5,201.5 Z"/></g>
<g><path style="opacity:1" fill="#504039" d="M 66.5,196.5 C 58.1808,198.825 51.5141,203.492 46.5,210.5C 45.3112,211.429 43.9778,211.762 42.5,211.5C 43.9143,209.402 43.2476,208.402 40.5,208.5C 42.028,224.118 43.3614,239.785 44.5,255.5C 41.5,255.5 38.5,255.5 35.5,255.5C 34.9682,239.414 35.6349,223.414 37.5,207.5C 39.604,207.799 41.604,207.466 43.5,206.5C 42.624,205.749 41.624,205.249 40.5,205C 42.6528,199.238 46.6528,195.238 52.5,193C 58.3505,191.926 64.1839,190.759 70,189.5C 70.8333,189.833 71.6667,190.167 72.5,190.5C 70.785,192.882 68.785,194.882 66.5,196.5 Z"/></g>
<g><path style="opacity:1" fill="#42332d" d="M 166.5,255.5 C 164.5,255.5 162.5,255.5 160.5,255.5C 160.615,248.118 161.282,240.784 162.5,233.5C 164.297,236.743 166.63,239.576 169.5,242C 176.519,244.586 177.186,247.086 171.5,249.5C 171.881,251.942 171.214,252.609 169.5,251.5C 168.611,253.007 167.611,254.34 166.5,255.5 Z"/></g>
<g><path style="opacity:1" fill="#140c09" d="M 211.5,225.5 C 210.652,235.628 209.319,245.628 207.5,255.5C 206.5,255.5 205.5,255.5 204.5,255.5C 204.261,250.285 205.261,245.452 207.5,241C 206.801,237.136 206.467,232.969 206.5,228.5C 207.552,228.649 208.552,228.483 209.5,228C 208.391,226.187 209.058,225.354 211.5,225.5 Z"/></g>
<g><path style="opacity:1" fill="#30241e" d="M 86.5,255.5 C 74.1667,255.5 61.8333,255.5 49.5,255.5C 45.7771,254.206 45.7771,253.039 49.5,252C 45.6221,251.051 45.6221,249.885 49.5,248.5C 56.9813,247.853 64.3147,246.853 71.5,245.5C 73.5,245.833 75.5,246.167 77.5,246.5C 77.2907,247.086 76.9574,247.586 76.5,248C 80.0804,250.277 83.4137,252.777 86.5,255.5 Z"/></g>
<g><path style="opacity:1" fill="#41332d" d="M 94.5,255.5 C 93.5,255.5 92.5,255.5 91.5,255.5C 90.3185,250.609 87.4851,248.275 83,248.5C 83.7523,245.391 85.7523,243.057 89,241.5C 89.9454,241.905 90.6121,242.572 91,243.5C 92.3809,247.403 93.5476,251.403 94.5,255.5 Z"/></g>
</svg>
